# xmcd CD database file
#
# Track frame offsets:
#	150
#	16365
#	30403
#	46333
#	59133
#	71343
#	83850
#	97150
#	111660
#	125958
#
# Disc length: 1873 seconds
#
# Revision: 0
# Processed by: cddbd v1.5.1PL2 Copyright (c) Steve Scherf et al.
# Submitted via: CDex 1.51
#
DISCID=92074f0a
DTITLE=アニマルズ - ザ・アニマルズ
DYEAR=2005
DGENRE=Rock and Roll
TTITLE0=スクリーミングポイント
TTITLE1=シークレット セクシーナイト
TTITLE2=Ｓ.Ｔ.Ｓ.
TTITLE3=ループショック
TTITLE4=モンスターズロック
TTITLE5=スローリアス タイム
TTITLE6=グローリーイマジネーション
TTITLE7=バッド ファッカー クレイジー ピープル
TTITLE8=キープ オン スタンディング
TTITLE9=20グローイングアップ
EXTD=YEAR: 2005
EXTT0=
EXTT1=
EXTT2=
EXTT3=
EXTT4=
EXTT5=
EXTT6=
EXTT7=
EXTT8=
EXTT9=
PLAYORDER=
